# xmcd
#
# Track frame offsets: 
#        150
#        24417
#        49402
#        79372
#        104915
#        128112
#        152735
#        185052
#        212455
#        232822
#        258725
#        280950
#
# Disc length: 3854 seconds
#
# Revision: 1
# Processed by: cddbd v1.5.2PL0 Copyright (c) Steve Scherf et al.
# Submitted via: ExactAudioCopy v1.0b3
#
DISCID=af0f0c0c
DTITLE=Tracy Chapman - NEW BEGINNING
DYEAR=2003
DGENRE=Folk - Rock
TTITLE0=Heaven's Here on Earth
TTITLE1=New Beginning
TTITLE2=Smoke And Ashes
TTITLE3=Cold Feet
TTITLE4=At This Point In My Life
TTITLE5=The Promise
TTITLE6=The Rape Of The World
TTITLE7=Tell It Liek It Is
TTITLE8=Give Me One Reason
TTITLE9=Remember The Tinman
TTITLE10=I'm Ready
TTITLE11=Save a Space For Me
EXTD=YEAR: 2003
EXTT0=
EXTT1=
EXTT2=
EXTT3=
EXTT4=
EXTT5=
EXTT6=
EXTT7=
EXTT8=
EXTT9=
EXTT10=
EXTT11=
PLAYORDER=
